# xmcd CD database file
#
# Track frame offsets:
#	150
#	11695
#	23732
#	35632
#	46515
#	60592
#	72227
#	85650
#	97072
#	109160
#	125257
#	138817
#	153850
#	169990
#	185092
#	197607
#	211267
#	222257
#	234547
#	245265
#	258887
#	271787
#	283950
#	296040
#	309294
#
# Disc length: 4309 seconds
#
# Revision: 0
# Processed by: cddbd v1.5.1PL0 Copyright (c) Steve Scherf et al.
# Submitted via: CDex 1.51
#
DISCID=6010d319
DTITLE=Sam Price  - 1942-1945
DYEAR=1942
DGENRE=Jazz
TTITLE0=Me And My Chauffeur
TTITLE1=I've Got Too Many Blues
TTITLE2=It's All Right Jack
TTITLE3=Blow, Katy, Blow
TTITLE4=Teed Up
TTITLE5=Frantic
TTITLE6=That's Kicks
TTITLE7=Pluckin' That Thing
TTITLE8=Boogie Woogie Notion
TTITLE9=House Rent Boogie
TTITLE10=Big Joe
TTITLE11=Boogin' A Plenty
TTITLE12=Sweet Lorraine
TTITLE13=Honeysuckle Rose
TTITLE14=In A Mezz
TTITLE15=Those Mellow Blus
TTITLE16=Gully Low Blues
TTITLE17=Cow Cow Blues
TTITLE18=133rd Street Boogie
TTITLE19=I Finally Gotcha
TTITLE20='Boogin' With "Mezz"
TTITLE21=Callin' 'Em Home
TTITLE22=Step Down, Step Up
TTITLE23=Shakin' Loose
TTITLE24=Boogien' With Big Sid
EXTD=YEAR: 1942
EXTT0=
EXTT1=
EXTT2=
EXTT3=
EXTT4=
EXTT5=
EXTT6=
EXTT7=
EXTT8=
EXTT9=
EXTT10=
EXTT11=
EXTT12=
EXTT13=
EXTT14=
EXTT15=
EXTT16=
EXTT17=
EXTT18=
EXTT19=
EXTT20=
EXTT21=
EXTT22=
EXTT23=
EXTT24=
PLAYORDER=
